<svg width="130" height="15" viewBox="0 0 130 15" fill="none" xmlns="http://www.w3.org/2000/svg">
<path fill-rule="evenodd" clip-rule="evenodd" d="M69.2886 10.804H74.2338L75.4224 14.4442H78.066L73.1004 0.244141H70.4234L65.4597 14.4442H68.1002L69.2886 10.804ZM71.1564 4.90425C71.4326 4.10605 71.751 2.70527 71.751 2.70527H71.7909C71.7909 2.70527 72.0867 4.10251 72.3454 4.90425L73.5969 8.70249H69.9066L71.1564 4.90425Z" fill="white"/>
<path fill-rule="evenodd" clip-rule="evenodd" d="M86.4021 0.246909H81.8572V0.245361H81.8557V14.4483H84.4151V9.15067H86.8788L89.6783 14.4498H92.5356L89.6373 9.15155C89.3575 8.64933 89.1596 8.45106 89.1596 8.45106V8.41082C90.6487 7.80516 91.5417 6.22799 91.5417 4.52792C91.5417 2.6488 90.6494 1.28539 89.2381 0.648993C88.6251 0.365611 87.93 0.246909 86.4021 0.246909ZM88.9404 4.66652C88.9404 6.08652 88.0876 6.90616 86.7185 6.90616L84.4147 6.90815V2.46754H86.361C88.3662 2.46754 88.9404 3.3073 88.9404 4.66652Z" fill="white"/>
<path fill-rule="evenodd" clip-rule="evenodd" d="M101.71 0.246826H96.9045V14.4433H101.71C106.057 14.4433 108.893 11.8082 108.893 7.3243C108.893 2.84633 106.057 0.246826 101.71 0.246826ZM106.253 7.32452C106.253 10.5259 104.429 12.2249 101.57 12.2249H99.4648V2.46613H101.57C104.385 2.46613 106.253 4.16775 106.253 7.32452Z" fill="white"/>
<path d="M113.483 10.804C113.483 10.804 115.011 12.3042 116.996 12.3042C118.068 12.3042 119.042 11.7463 119.042 10.5865C119.042 8.04287 112.391 8.48253 112.391 4.12526C112.391 1.76338 114.415 0.00561523 117.114 0.00561523C119.895 0.00561523 121.323 1.52553 121.323 1.52553L120.21 3.6268C120.21 3.6268 118.857 2.38761 117.091 2.38761C115.903 2.38761 114.967 3.08789 114.967 4.08768C114.967 6.60916 121.596 5.98758 121.596 10.5296C121.596 12.789 119.89 14.6882 116.951 14.6882C113.815 14.6882 112.089 12.7507 112.089 12.7507L113.483 10.804Z" fill="white"/>
<path d="M45.344 0.247014L43.0207 10.0699C42.843 10.869 42.7837 11.5677 42.7837 11.5677H42.7429C42.7221 11.5677 42.7021 10.888 42.4847 10.0699L39.9838 0.247014H37.761L35.2209 10.0699C35.0015 10.886 34.9831 11.5677 34.9627 11.5677H34.9232C34.9232 11.5677 34.8608 10.8679 34.6858 10.0699L33.0222 2.71456L31.772 8.07627L33.3539 14.4442H36.3118L38.4758 6.04639C38.7139 5.12596 38.8341 4.18673 38.8341 4.18673H38.8716C38.8716 4.18673 38.9906 5.12618 39.2304 6.04639L41.3968 14.4442H44.3525L47.9881 0.244141L45.344 0.247014Z" fill="#3E8C7C"/>
<path d="M61.2463 0.246826L58.9221 10.0697C58.7449 10.8688 58.6852 11.5675 58.6852 11.5675H58.6435C58.6255 11.5675 58.6064 10.8878 58.3881 10.0697L55.8849 0.246826H53.664L51.1232 10.0697C50.9032 10.8858 50.8856 11.5675 50.8652 11.5675H50.8244C50.8244 11.5675 50.7649 10.8677 50.587 10.0697L48.9133 2.68033L47.6631 8.04248L49.2574 14.4453H52.2139L54.3769 6.04709C54.6147 5.12665 54.736 4.18765 54.736 4.18765H54.7755C54.7755 4.18765 54.8947 5.12665 55.1329 6.04709L57.2983 14.4453H60.255L63.8902 0.246826H61.2463V0.246826Z" fill="#3E8C7C"/>
<path fill-rule="evenodd" clip-rule="evenodd" d="M3.83198 10.8038H8.77571L9.96579 14.444H12.6068L7.64422 0.246826H4.96326L0 14.444H2.64125L3.83198 10.8038ZM5.6985 4.90406C5.97495 4.10586 6.29397 2.70509 6.29397 2.70509H6.33149C6.33149 2.70509 6.63055 4.10475 6.88726 4.90561L8.14008 8.7023H4.44765L5.6985 4.90406Z" fill="white"/>
<path d="M26.5834 10.0679C26.8013 10.8862 26.8202 11.5666 26.8397 11.5666H26.8798C26.8798 11.5666 26.9408 10.865 27.1177 10.0679L29.4403 0.244141H32.0812L28.4469 14.4442H25.4903L23.3274 6.04529C23.09 5.12551 22.9682 4.18607 22.9682 4.18607H22.9287C22.9287 4.18607 22.8111 5.12551 22.5713 6.04529L20.4068 14.4435H17.449L13.916 0.247014H16.5566L18.7808 10.0699C18.9598 10.869 19.0191 11.5677 19.0191 11.5677H19.059C19.0803 11.5677 19.0965 10.888 19.3172 10.0699L21.8582 0.247014H24.078L26.5834 10.0679Z" fill="white"/>
<path fill-rule="evenodd" clip-rule="evenodd" d="M130 7.40424C130 6.02942 128.9 4.93677 127.517 4.93677C126.16 4.93677 125.063 6.0303 125.063 7.40424C125.063 8.78852 126.16 9.87348 127.517 9.87348C128.9 9.87348 130 8.7883 130 7.40424ZM129.686 7.406C129.686 8.63842 128.744 9.58537 127.517 9.58537C126.312 9.58537 125.375 8.63996 125.375 7.406C125.375 6.18171 126.311 5.22641 127.517 5.22641C128.742 5.22641 129.686 6.17908 129.686 7.406ZM126.71 6.0437H127.635C128.107 6.0437 128.446 6.35884 128.446 6.83572C128.446 7.23744 128.197 7.49544 127.908 7.56467V7.57741C127.908 7.57741 127.933 7.61214 128.001 7.72839L128.552 8.77094H128.209L127.618 7.63257H127.016V8.77094H126.714L126.71 6.0437ZM128.132 6.83462C128.132 7.16932 127.924 7.37106 127.602 7.37106L127.016 7.37062V6.31357H127.602C127.924 6.31357 128.132 6.50762 128.132 6.83462Z" fill="white"/>
</svg>
