<svg width="80" height="80" viewBox="0 0 80 80" fill="none" xmlns="http://www.w3.org/2000/svg">
<rect width="79.2788" height="79.353" rx="17" fill="url(#paint0_linear)"/>
<path fill-rule="evenodd" clip-rule="evenodd" d="M60.7399 27.7445C69.8038 30.512 75.7157 34.9747 75.7157 39.6837C75.7157 44.3783 69.8329 48.841 60.8271 51.6085C62.9333 60.7948 62.0182 68.1119 57.9365 70.4592C56.9779 71.0098 55.8739 71.2706 54.6538 71.2706C50.6593 71.2706 45.4301 68.4596 40.1429 63.5622C34.8556 68.4886 29.6264 71.3285 25.632 71.3285C24.4118 71.3285 23.3079 71.0677 22.3637 70.5171C18.2676 68.1698 17.3379 60.8382 19.4296 51.623C10.3657 48.8555 4.45386 44.3928 4.45386 39.6837C4.45386 34.9892 10.3367 30.541 19.3715 27.759C17.2653 18.5727 18.1804 11.2556 22.262 8.90833C23.2207 8.35773 24.3247 8.09692 25.5448 8.09692V8.08243C29.5393 8.08243 34.7685 10.8934 40.0557 15.7908C45.343 10.8644 50.5721 8.02448 54.5666 8.02448V8.03898C55.7666 8.04106 56.8654 8.30199 57.8058 8.85037C61.902 11.1976 62.8316 18.5293 60.7399 27.7445ZM54.5521 11.2556C51.5311 11.2633 47.093 13.6679 42.3653 18.0511C44.4133 20.1811 46.4469 22.6153 48.4078 25.2958C51.6761 25.6435 54.7845 26.1797 57.6315 26.8751C57.9511 25.4117 58.2125 23.9773 58.3723 22.6153C59.0405 17.0803 58.1835 12.777 56.208 11.6468C55.7577 11.4005 55.2203 11.2701 54.5521 11.2701V11.2556ZM37.7462 18.0656C33.0109 13.7043 28.5516 11.3136 25.5448 11.3136V11.3281C24.8766 11.3281 24.3101 11.444 23.8744 11.7048C21.9134 12.8494 21.071 17.1528 21.7537 22.6877C21.928 24.0352 22.1749 25.4407 22.509 26.8896C25.356 26.1797 28.4644 25.6435 31.7472 25.2958C33.679 22.6153 35.7126 20.1955 37.7462 18.0656ZM54.8426 35.7426C55.5979 33.8155 56.2661 31.8885 56.8036 30.0193C54.9007 29.5557 52.9107 29.179 50.8481 28.8747C51.5599 29.9759 52.2716 31.106 52.9398 32.2652C53.6225 33.4243 54.2471 34.5835 54.8426 35.7426ZM50.1509 45.4505C49.0179 47.4066 47.8559 49.2612 46.6503 50.9855C44.486 51.1738 42.2926 51.2752 40.0848 51.2752C37.8914 51.2752 35.6981 51.1738 33.5483 50.9999C32.3427 49.2757 31.1661 47.4356 30.0332 45.494C28.9292 43.5959 27.927 41.6688 27.0119 39.7272C27.9124 37.7856 28.9292 35.8441 30.0186 33.946C31.1516 31.9899 32.3137 30.1353 33.5193 28.411C35.6836 28.2227 37.8769 28.1212 40.0848 28.1212C42.2781 28.1212 44.4715 28.2227 46.6212 28.3965C47.8268 30.1208 49.0034 31.9609 50.1364 33.9025C51.2403 35.8006 52.2426 37.7277 53.1577 39.6693C52.2426 41.6108 51.2403 43.5524 50.1509 45.4505ZM56.8471 49.3337C56.2952 47.45 55.627 45.5085 54.8426 43.5669C54.2471 44.726 53.6225 45.8997 52.9543 47.0588C52.2861 48.2325 51.5744 49.3771 50.8626 50.4928C52.9398 50.1885 54.9443 49.7973 56.8471 49.3337ZM40.1138 59.027C38.763 57.6361 37.4121 56.0857 36.0757 54.3904C37.383 54.4484 38.7194 54.4919 40.0702 54.4919C41.4356 54.4919 42.7865 54.4629 44.1083 54.3904C42.801 56.0857 41.4502 57.6361 40.1138 59.027ZM23.3515 49.3482C25.2543 49.8118 27.2443 50.1885 29.3069 50.4928C28.5951 49.3916 27.8979 48.2614 27.2152 47.1023C26.5325 45.9431 25.9079 44.784 25.3124 43.6249C24.5571 45.5519 23.8889 47.479 23.3515 49.3482ZM40.0412 20.3404C41.3921 21.7314 42.7429 23.2818 44.0793 24.977C42.772 24.9191 41.4356 24.8756 40.0848 24.8756C38.7194 24.8756 37.3685 24.9046 36.0467 24.977C37.354 23.2818 38.7048 21.7314 40.0412 20.3404ZM27.2007 32.3087C27.8689 31.135 28.5806 29.9904 29.2924 28.8747C27.2152 29.179 25.2107 29.5702 23.3079 30.0193C23.8598 31.903 24.528 33.8445 25.3124 35.7861C25.9079 34.627 26.5325 33.4678 27.2007 32.3087ZM16.1468 47.0154C11.0048 44.8275 7.67851 41.9586 7.67851 39.6837C7.67851 37.4089 11.0048 34.5255 16.1468 32.3521C17.396 31.816 18.7614 31.3379 20.1704 30.8887C20.9983 33.7286 22.0877 36.6844 23.4386 39.7127C22.1023 42.7265 21.0274 45.6679 20.214 48.4933C18.7759 48.0441 17.4106 47.5515 16.1468 47.0154ZM21.7972 56.7522C21.1291 62.2872 21.9861 66.5905 23.9615 67.7207C24.3973 67.967 24.9493 68.0974 25.6029 68.1119C28.6242 68.1119 33.069 65.7066 37.8043 61.3164C35.7562 59.1864 33.7226 56.7522 31.7617 54.0717C28.4935 53.7239 25.385 53.1878 22.538 52.4923C22.2185 53.9558 21.957 55.3902 21.7972 56.7522ZM58.4159 56.6798C59.0986 62.2147 58.2561 66.5181 56.2952 67.6627C55.8594 67.9235 55.2929 68.0394 54.6247 68.0394C51.618 68.0394 47.1587 65.6487 42.4234 61.2874C44.4569 59.1575 46.4905 56.7377 48.4224 54.0572C51.7051 53.7094 54.8136 53.1733 57.6606 52.4634C57.9946 53.9268 58.2561 55.3323 58.4159 56.6798ZM59.9846 48.4788C61.3936 48.0296 62.759 47.5515 64.0082 47.0154C69.1502 44.842 72.4765 41.9586 72.491 39.6837C72.491 37.4089 69.1647 34.54 64.0227 32.3521C62.7445 31.816 61.3791 31.3234 59.941 30.8742C59.1276 33.6996 58.0527 36.641 56.7164 39.6548C58.0673 42.683 59.1567 45.6389 59.9846 48.4788Z" fill="#61DAFB"/>
<ellipse cx="40.5302" cy="39.6765" rx="6.6808" ry="6.68705" fill="#61DAFB"/>
<defs>
<linearGradient id="paint0_linear" x1="0" y1="0" x2="0" y2="79.353" gradientUnits="userSpaceOnUse">
<stop stop-color="#181C21"/>
<stop offset="1" stop-color="#181C21"/>
</linearGradient>
</defs>
</svg>
