<svg width="80" height="80" viewBox="0 0 80 80" fill="none" xmlns="http://www.w3.org/2000/svg">
<rect x="0.571442" y="0.571442" width="78.8571" height="78.8571" rx="17" fill="#2B2E3A"/>
<circle cx="40.443" cy="39.557" r="29.2392" fill="#2B2E3A"/>
<path fill-rule="evenodd" clip-rule="evenodd" d="M22.5332 29.9057C24.4172 26.6358 29.1442 25.4939 35.1225 26.5849C35.4511 26.6501 35.6666 26.9675 35.6066 27.2977C35.5465 27.628 35.2331 27.8488 34.9027 27.7937C29.3764 26.7851 25.1602 27.8038 23.5951 30.5201C22.4424 32.5208 22.7893 35.3127 24.5714 38.4277C24.6861 38.6185 24.6889 38.8564 24.5786 39.0497C24.4683 39.243 24.2623 39.3614 24.0401 39.3592C23.8179 39.3569 23.6143 39.2344 23.508 39.0389C21.5293 35.5808 21.1275 32.3458 22.5332 29.9057ZM35.7563 50.473C32.1746 48.4011 29.0341 45.9041 26.6168 43.2422C26.4683 43.08 26.4178 42.8507 26.4843 42.6409C26.5508 42.4312 26.7241 42.2731 26.9388 42.2265C27.1534 42.1799 27.3765 42.2519 27.5237 42.4152C29.8536 44.981 32.8949 47.399 36.3694 49.4092C44.6779 54.2161 53.4477 55.49 57.52 52.7076C57.7009 52.5793 57.9368 52.5588 58.137 52.6539C58.3372 52.7491 58.4706 52.9451 58.4859 53.1666C58.5012 53.3882 58.3961 53.6007 58.2108 53.7226C53.6608 56.8315 44.4284 55.4905 35.7563 50.473Z" fill="#9FEAF9"/>
<path fill-rule="evenodd" clip-rule="evenodd" d="M60.1605 29.937C62.0406 33.2 60.6739 37.8608 56.7593 42.4949C56.6186 42.6653 56.3974 42.7468 56.1801 42.7082C55.9628 42.6697 55.7829 42.5171 55.7091 42.3087C55.6353 42.1003 55.6789 41.8682 55.8234 41.701C59.4414 37.418 60.6603 33.2617 59.0989 30.5514C57.9653 28.5838 55.4457 27.4916 51.9502 27.446C51.6152 27.4368 51.3496 27.1598 51.3539 26.8239C51.3583 26.4881 51.6309 26.218 51.9661 26.2175C55.8528 26.2681 58.7773 27.5359 60.1605 29.937ZM35.7742 31.1285C39.3922 29.0353 43.1597 27.5495 46.6991 26.7895C46.9148 26.7395 47.1407 26.8099 47.29 26.9737C47.4394 27.1376 47.4889 27.3694 47.4197 27.5802C47.3504 27.791 47.1731 27.9479 46.9559 27.9909C43.545 28.7232 39.8971 30.1618 36.3873 32.1926C27.8216 37.1483 22.2859 44.3876 23.0061 49.3046C23.0409 49.5231 22.9556 49.7435 22.783 49.8815C22.6104 50.0195 22.3771 50.0539 22.1722 49.9714C21.9673 49.889 21.8224 49.7024 21.793 49.4831C20.9819 43.9453 26.8218 36.3079 35.7742 31.1285Z" fill="#9FEAF9"/>
<path fill-rule="evenodd" clip-rule="evenodd" d="M52.5194 40.8164C52.5194 44.8951 51.9504 48.8091 50.8906 52.202H50.8909C50.8278 52.4144 50.6556 52.5763 50.44 52.6258C50.2245 52.6752 49.999 52.6045 49.8501 52.4407C49.7011 52.277 49.6517 52.0455 49.7207 51.835C50.7421 48.5637 51.2932 44.7735 51.2932 40.8164C51.2932 31.0714 47.9198 22.7451 43.404 20.7356C43.1021 20.5935 42.9689 20.2357 43.1043 19.9302C43.2396 19.6247 43.5939 19.4837 43.9015 19.6128C48.9646 21.8656 52.5194 30.6389 52.5194 40.8164ZM41.3559 62.5755C37.5908 62.5755 34.2425 59.0492 32.1955 53.3222H32.1957C32.1167 53.1143 32.1559 52.8798 32.2984 52.7092C32.4409 52.5385 32.6643 52.4584 32.8825 52.4997C33.1006 52.541 33.2795 52.6973 33.35 52.9083C35.2418 58.2017 38.2283 61.3467 41.3559 61.3467C43.6054 61.3467 45.7924 59.732 47.5729 56.7642C47.6841 56.5726 47.8896 56.4559 48.1107 56.4587C48.3319 56.4616 48.5344 56.5835 48.6406 56.7779C48.7469 56.9723 48.7404 57.209 48.6237 57.3972C46.6425 60.6996 44.102 62.5755 41.3559 62.5755ZM62.4367 51.6002C62.4367 49.9764 61.1231 48.66 59.5026 48.66C57.8821 48.66 56.5685 49.9764 56.5685 51.6002C56.5685 53.2241 57.8821 54.5404 59.5026 54.5404C61.1231 54.5404 62.4367 53.2241 62.4367 51.6002ZM60.3566 53.0826C60.8851 52.7768 61.2106 52.2118 61.2106 51.6002C61.2106 50.6549 60.4459 49.8886 59.5026 49.8886C58.5592 49.8886 57.7945 50.6549 57.7945 51.6002C57.7945 52.2118 58.12 52.7768 58.6485 53.0826C59.177 53.3883 59.8281 53.3883 60.3566 53.0826ZM23.167 54.5404C24.7878 54.5404 26.1013 53.2241 26.1013 51.6002C26.1013 49.9764 24.7875 48.66 23.167 48.66C21.5468 48.66 20.2329 49.9764 20.2329 51.6002C20.2329 53.2241 21.5468 54.5404 23.167 54.5404ZM21.4589 51.6002C21.4589 52.5456 22.2237 53.3119 23.167 53.3119C24.1104 53.3119 24.8751 52.5456 24.8751 51.6002C24.8751 50.6549 24.1104 49.8886 23.167 49.8886C22.2237 49.8886 21.4589 50.6549 21.4589 51.6002Z" fill="#9FEAF9"/>
<path fill-rule="evenodd" clip-rule="evenodd" d="M41.356 22.612C42.9765 22.612 44.2901 21.2956 44.2901 19.6718C44.2901 18.0479 42.9765 16.7316 41.356 16.7316C39.7355 16.7316 38.4219 18.0479 38.4219 19.6718C38.4219 21.2956 39.7355 22.612 41.356 22.612ZM41.356 21.3834C40.4126 21.3834 39.6479 20.6171 39.6479 19.6718C39.6479 18.7265 40.4126 17.9601 41.356 17.9601C42.2993 17.9601 43.064 18.7265 43.064 19.6718C43.064 20.6171 42.2993 21.3834 41.356 21.3834ZM39.281 41.2657C39.529 42.414 40.658 43.1439 41.804 42.8957C42.9503 42.6472 43.6785 41.5156 43.431 40.3672C43.1827 39.2188 42.0537 38.489 40.9077 38.7371C39.7618 38.9854 39.0336 40.1173 39.281 41.2657Z" fill="#9FEAF9"/>
</svg>
