<svg width="81" height="80" viewBox="0 0 81 80" fill="none" xmlns="http://www.w3.org/2000/svg">
<rect x="0.0194321" width="79.2788" height="79.353" rx="17" fill="url(#paint0_linear)"/>
<path d="M40.1074 60.6292C39.8653 60.6292 39.6249 60.5666 39.4127 60.446L37.2015 59.1545C36.8712 58.9723 37.0324 58.9079 37.1413 58.8708C37.5817 58.7186 37.671 58.6843 38.141 58.421C38.1904 58.3932 38.2551 58.403 38.3057 58.4324L40.0044 59.4269C40.0657 59.4596 40.1528 59.4596 40.2096 59.4269L46.8331 55.6551C46.8945 55.6208 46.9342 55.5504 46.9342 55.4785V47.9383C46.9342 47.863 46.8945 47.796 46.8318 47.7583L40.211 43.9899C40.1496 43.9539 40.0684 43.9539 40.007 43.9899L33.3876 47.7583C33.3234 47.7943 33.2826 47.8647 33.2826 47.9366V55.4768C33.2826 55.5488 33.3224 55.6175 33.3854 55.6519L35.1992 56.6856C36.184 57.1713 36.7858 56.5989 36.7858 56.0231V48.5811C36.7858 48.4747 36.8704 48.393 36.9782 48.393H37.8171C37.9215 48.393 38.0077 48.4747 38.0077 48.5811V56.0264C38.0077 57.3218 37.2915 58.066 36.0464 58.066C35.6634 58.066 35.3617 58.066 34.5194 57.6571L32.7819 56.6692C32.3521 56.4218 32.0876 55.9678 32.0872 55.4768V47.9366C32.0872 47.4459 32.3525 46.988 32.7819 46.7459L39.412 42.9725C39.8315 42.7386 40.3885 42.7386 40.8047 42.9725L47.4265 46.7475C47.8563 46.9942 48.1209 47.4477 48.1212 47.9383V55.4785C48.1212 55.9675 47.8542 56.4239 47.4265 56.6692L40.8047 60.4426C40.5924 60.5632 40.3516 60.6264 40.1067 60.6258" fill="white"/>
<path fill-rule="evenodd" clip-rule="evenodd" d="M49.5733 49.0582C50.2436 49.0582 50.7935 48.4528 50.7935 47.7109H50.7919C50.7919 46.9497 50.2309 46.3635 49.5733 46.3635C48.9204 46.3635 48.3531 46.948 48.3531 47.7109C48.3531 48.4598 48.9077 49.0582 49.5733 49.0582ZM48.5512 47.7074C48.5512 48.3338 49.0092 48.8413 49.5717 48.8413C50.139 48.8413 50.597 48.3233 50.597 47.7074C50.597 47.0792 50.1327 46.5805 49.5701 46.5805C49.0155 46.5805 48.5496 47.0722 48.5496 47.7056L48.5512 47.7074ZM49.5876 46.955H49.1169V48.4685H49.3815V47.8631H49.6208C49.7175 47.8631 49.7444 47.9051 49.7635 47.9908C49.7635 48.0088 49.7958 48.2923 49.8102 48.4182L49.8157 48.4668H50.1057C50.0691 48.3994 50.0487 48.2038 50.0359 48.0816L50.0344 48.0678L50.0324 48.0523C50.0083 47.8681 49.9913 47.7385 49.8078 47.7249L49.8086 47.7246C49.9054 47.6896 50.0661 47.6314 50.0661 47.3539C50.0661 46.955 49.7492 46.955 49.5876 46.955ZM49.3752 47.6164H49.5876C49.7619 47.6164 49.7951 47.4817 49.7951 47.4029C49.7951 47.1964 49.6668 47.1964 49.5955 47.1964H49.3768L49.3752 47.6164ZM41.6734 56.163C38.9034 56.163 38.3227 54.7589 38.3227 53.5813C38.3227 53.4693 38.4044 53.3801 38.506 53.3801H39.3237C39.414 53.3801 39.4901 53.4527 39.5043 53.5512C39.6279 54.4713 39.9956 54.9353 41.6706 54.9353C43.0049 54.9353 43.5722 54.6025 43.5722 53.8212C43.5722 53.3715 43.4105 53.0373 41.3378 52.8133C39.6042 52.6243 38.5329 52.2026 38.5329 50.6716C38.5329 49.2612 39.6105 48.4213 41.4154 48.4213C43.4422 48.4213 44.4469 49.1982 44.5737 50.8675C44.5779 50.9243 44.5605 50.9804 44.5256 51.0223C44.4906 51.0642 44.4414 51.088 44.3899 51.088H43.5674C43.4818 51.088 43.4074 51.0215 43.3899 50.9305C43.1919 49.9629 42.7133 49.6532 41.4123 49.6532C39.956 49.6532 39.7864 50.2131 39.7864 50.6331C39.7864 51.1422 39.9861 51.291 41.9511 51.578C43.897 51.8632 44.8209 52.2656 44.8209 53.7757C44.8209 55.298 43.6704 56.1712 41.6642 56.1712L41.6734 56.163Z" fill="white"/>
<path fill-rule="evenodd" clip-rule="evenodd" d="M20.2751 32.0481C20.2751 31.7592 20.1227 31.4939 19.8733 31.3502L13.2207 27.5242C13.1094 27.4594 12.9838 27.4233 12.8551 27.419H12.7863C12.6587 27.4237 12.5329 27.4583 12.4187 27.5242L5.76647 31.3502C5.51757 31.495 5.36434 31.761 5.36407 32.0488L5.37868 42.354C5.37868 42.4969 5.4525 42.6303 5.57815 42.701C5.70066 42.7764 5.85458 42.7764 5.97709 42.701L9.93195 40.4371C10.1817 40.2886 10.334 40.0261 10.334 39.7401V34.9258C10.3335 34.6388 10.4865 34.3735 10.7353 34.2303L12.4191 33.261C12.5412 33.1901 12.6799 33.1528 12.8211 33.153C12.9587 33.153 13.0991 33.1885 13.2207 33.2608L14.9036 34.2298C15.1528 34.3727 15.3057 34.638 15.3057 34.9253V39.7393C15.3057 40.025 15.4601 40.2888 15.7086 40.4363L19.661 42.6986C19.7848 42.7724 19.9392 42.7724 20.063 42.6986C20.1862 42.6264 20.2619 42.4944 20.2622 42.3517L20.2751 32.0481ZM51.6671 37.4135C51.6671 37.4853 51.6289 37.5517 51.5666 37.5872L49.2816 38.9037C49.2195 38.9394 49.1431 38.9394 49.081 38.9037L46.7957 37.5872C46.7329 37.5515 46.6952 37.4851 46.6952 37.4135V34.7766C46.6952 34.7047 46.7329 34.6385 46.7942 34.6024L49.0779 33.2836C49.1407 33.2475 49.2177 33.2475 49.2805 33.2836L51.5658 34.6024C51.6286 34.6385 51.6663 34.7047 51.6663 34.7766L51.6671 37.4135ZM52.2843 17.883C52.1598 17.8137 52.0079 17.8153 51.8848 17.8872C51.7623 17.9594 51.6866 18.0913 51.6866 18.2342V28.4389C51.6867 28.5393 51.6332 28.6322 51.5462 28.6824C51.4592 28.7326 51.3519 28.7325 51.265 28.6822L49.5986 27.7228C49.3502 27.5793 49.044 27.5793 48.7956 27.7228L42.1409 31.5618C41.8924 31.7047 41.7391 31.9692 41.7388 32.2558V39.936C41.7388 40.2233 41.8922 40.487 42.1409 40.6315L48.7956 44.4732C49.0441 44.616 49.3501 44.616 49.5993 44.4732L56.2541 40.6299C56.5023 40.4855 56.6562 40.2217 56.6562 39.9344V20.7935C56.6557 20.5021 56.4977 20.2337 56.2431 20.0917L52.2843 17.883ZM74.4449 34.7072C74.6922 34.5634 74.8443 34.299 74.8443 34.013V32.1517C74.8443 31.8653 74.692 31.6011 74.4443 31.457L67.8319 27.62C67.5828 27.4756 67.2753 27.4756 67.0262 27.62L60.373 31.4585C60.1232 31.603 59.9709 31.8667 59.9709 32.154V39.8311C59.9709 40.12 60.1264 40.3869 60.3761 40.5297L66.9869 44.2961C67.2304 44.4358 67.5288 44.4374 67.7754 44.3008L71.7742 42.0793C71.8999 42.0086 71.98 41.8752 71.98 41.7308C71.98 41.5863 71.903 41.4513 71.7774 41.3807L65.0833 37.5405C64.9577 37.4699 64.8807 37.3365 64.8807 37.1936V34.7853C64.8807 34.6415 64.9561 34.509 65.0817 34.4374L67.1644 33.2364C67.2885 33.1641 67.4408 33.1641 67.5649 33.2364L69.6491 34.4374C69.7732 34.508 69.8502 34.6415 69.8502 34.7843V36.6777C69.8502 36.8206 69.9271 36.954 70.0512 37.0262C70.1753 37.0969 70.3292 37.0969 70.4533 37.0247L74.4449 34.7072Z" fill="white"/>
<path fill-rule="evenodd" clip-rule="evenodd" d="M66.7321 33.9039C66.7913 33.8734 66.8645 33.8734 66.9237 33.9039L68.5131 34.7105C68.5726 34.7408 68.6089 34.7965 68.6089 34.8567V36.4718C68.6089 36.532 68.5726 36.5877 68.5131 36.618L66.9237 37.4246C66.8645 37.4551 66.7913 37.4551 66.7321 37.4246L65.1436 36.618C65.0835 36.5883 65.0461 36.5324 65.0458 36.4718V34.8567C65.0458 34.7965 65.081 34.7408 65.1416 34.7105L66.7321 33.9039Z" fill="white"/>
<path d="M44.4578 30.5649L25.762 21.4926L16.1759 40.8525L34.8712 49.9253L44.4578 30.5649Z" fill="url(#paint1_linear)"/>
<path d="M15.1734 33.5632L28.1927 51.6267L45.4108 38.586L32.3908 20.523L15.1734 33.5632Z" fill="url(#paint2_linear)"/>
<path d="M24.0736 26.901V44.4763H39.1645V26.901L24.0736 26.901Z" fill="url(#paint3_linear)"/>
<defs>
<linearGradient id="paint0_linear" x1="0.0194321" y1="0" x2="0.0194321" y2="79.353" gradientUnits="userSpaceOnUse">
<stop stop-color="#181C21"/>
<stop offset="1" stop-color="#181C21"/>
</linearGradient>
<linearGradient id="paint1_linear" x1="25.4763" y1="21.1962" x2="15.8089" y2="40.5138" gradientUnits="userSpaceOnUse">
<stop offset="0.3" stop-color="#3E863D"/>
<stop offset="0.5" stop-color="#55934F"/>
<stop offset="0.8" stop-color="#5AAD45"/>
</linearGradient>
<linearGradient id="paint2_linear" x1="28.1005" y1="51.5546" x2="45.6584" y2="38.986" gradientUnits="userSpaceOnUse">
<stop offset="0.57" stop-color="#3E863D"/>
<stop offset="0.72" stop-color="#619857"/>
<stop offset="1" stop-color="#76AC64"/>
</linearGradient>
<linearGradient id="paint3_linear" x1="24.0787" y1="44.4755" x2="39.1674" y2="44.4755" gradientUnits="userSpaceOnUse">
<stop offset="0.16" stop-color="#6BBF47"/>
<stop offset="0.38" stop-color="#79B461"/>
<stop offset="0.47" stop-color="#75AC64"/>
<stop offset="0.7" stop-color="#659E5A"/>
<stop offset="0.9" stop-color="#3E863D"/>
</linearGradient>
</defs>
</svg>
