<svg width="80" height="80" viewBox="0 0 80 80" fill="none" xmlns="http://www.w3.org/2000/svg">
<rect x="0.571411" y="0.571442" width="78.8571" height="78.8571" rx="18" fill="#181C21"/>
<path fill-rule="evenodd" clip-rule="evenodd" d="M44.9934 17.92V27.6692L62.08 37.4183V27.6692L44.9934 17.92ZM10.8228 37.4183L19.3661 42.2929V32.5437L10.8228 27.6692V37.4183ZM27.9068 37.4183L36.4501 32.5437V42.2954L44.9934 47.17V56.9191L36.4501 52.0446V71.5429L27.9068 66.6658V37.4183Z" fill="#E55B2D"/>
<path fill-rule="evenodd" clip-rule="evenodd" d="M19.4971 32.5437L45.1256 17.92H45.1282V37.4183L36.5845 42.2929V32.5437L19.4971 42.2929V32.5437ZM62.2105 27.6692L70.7542 22.7946V32.5437L62.2105 37.4183V27.6692ZM53.6694 42.2954L45.1256 47.17V56.9191L36.5819 52.0446V71.5429L45.1256 66.6683V56.9191L53.6694 52.0446V42.2954Z" fill="#ED8E24"/>
<path fill-rule="evenodd" clip-rule="evenodd" d="M10.8228 27.3829L45.0682 7.66858L70.7542 22.4543L62.1922 27.3829L45.0682 17.5257L19.3848 32.3114L10.8228 27.3829ZM36.5062 42.1686L45.0682 37.24L53.6302 42.1686L45.0682 47.0971L36.5062 42.1686Z" fill="#F8BF3C"/>
</svg>
