<svg width="80" height="80" viewBox="0 0 80 80" fill="none" xmlns="http://www.w3.org/2000/svg">
<rect width="79.2788" height="79.353" rx="17" fill="#FF3C00"/>
<path d="M64.6416 15.0627C58.4487 6.30897 46.2178 3.71461 37.3751 9.27984L21.8453 19.0572C17.6072 21.687 14.6851 25.9576 13.7946 30.8231C13.052 34.8844 13.7016 39.0745 15.6406 42.7301C14.3117 44.7217 13.4061 46.9594 12.9788 49.3072C12.0828 54.2758 13.2528 59.3914 16.2241 63.4967C22.417 72.2505 34.6479 74.8449 43.4906 69.2796L59.0204 59.5434C63.2533 56.9083 66.1737 52.6403 67.0711 47.7776C67.811 43.7175 67.1593 39.5296 65.2192 35.8765C66.5474 33.8838 67.4548 31.6468 67.8869 29.2994C68.7802 24.3308 67.6104 19.2162 64.6416 15.1098" fill="white"/>
<path d="M35.8851 63.885C30.9087 65.1664 25.6549 63.2326 22.7245 59.0408C20.9499 56.5774 20.2522 53.5076 20.7895 50.5268C20.8767 50.0469 20.9994 49.5739 21.1563 49.1117L21.4463 48.231L22.2393 48.8182C24.0619 50.1385 26.0967 51.1431 28.2574 51.7893L28.8492 51.9595L28.7959 52.5467C28.739 53.3518 28.9671 54.1513 29.4409 54.8073C30.3251 56.0682 31.9072 56.6493 33.4057 56.2635C33.7402 56.1743 34.0594 56.0357 34.3525 55.8525L49.7618 46.0937C50.5271 45.6159 51.0535 44.8397 51.2116 43.9564C51.371 43.0569 51.1576 42.1316 50.6198 41.3904C49.7356 40.1295 48.1536 39.5484 46.6551 39.9342C46.3201 40.0223 46.0008 40.161 45.7083 40.3453L39.7907 44.0738C38.8229 44.6827 37.7674 45.1421 36.6603 45.436C31.6924 46.7096 26.4507 44.7791 23.5234 40.5977C21.7541 38.132 21.0609 35.0629 21.6002 32.0837C22.1285 29.1569 23.875 26.5863 26.4111 25.0024L41.8678 15.2436C42.8299 14.6359 43.8794 14.1766 44.9804 13.8814C49.9552 12.5991 55.2078 14.5334 58.1351 18.7256C59.9118 21.1881 60.6117 24.258 60.0761 27.2396C59.9838 27.7223 59.8612 28.1988 59.7092 28.6664L59.4133 29.5471L58.6263 28.96C56.7999 27.6296 54.7588 26.617 52.5904 25.9654L51.9986 25.7951L52.0519 25.2079C52.1202 24.3989 51.898 23.5919 51.4246 22.9297C50.5352 21.6909 48.966 21.1274 47.4835 21.5146C47.1486 21.6027 46.8293 21.7414 46.5367 21.9256L31.0978 31.6668C30.3355 32.1449 29.8097 32.9179 29.648 33.7983C29.4918 34.6996 29.7048 35.6254 30.2398 36.3701C31.1196 37.6191 32.6858 38.1987 34.175 37.8263C34.5091 37.7358 34.8281 37.5974 35.1218 37.4153L41.0393 33.6926C42.0064 33.077 43.0647 32.6154 44.1756 32.3245C49.1493 31.0392 54.4026 32.9714 57.3303 37.1628C59.1058 39.6259 59.8055 42.6952 59.2713 45.6768C58.7429 48.6036 56.9965 51.1742 54.4603 52.7581L39.0214 62.5169C38.0518 63.1278 36.9943 63.5891 35.8851 63.885Z" fill="#FF3C00"/>
</svg>
