<svg width="80" height="80" viewBox="0 0 80 80" fill="none" xmlns="http://www.w3.org/2000/svg">
<rect width="79.2788" height="79.353" rx="17" fill="#F7DF1E"/>
<path d="M21.3787 65.4294L27.4379 61.7688C28.6068 63.8378 29.6702 65.5884 32.2208 65.5884C34.6658 65.5884 36.2072 64.6336 36.2072 60.9199V35.6642H43.6479V61.0249C43.6479 68.7183 39.1305 72.2201 32.5398 72.2201C26.5875 72.2201 23.1324 69.1426 21.3785 65.4288" fill="black"/>
<path d="M47.211 64.7201L53.2575 61.2586C54.8493 63.8288 56.918 65.7167 60.5779 65.7167C63.6549 65.7167 65.617 64.1956 65.617 62.0977C65.617 59.5802 63.6014 58.6885 60.2065 57.2205L58.3505 56.4332C52.9926 54.1784 49.4385 51.3463 49.4385 45.3672C49.4385 39.8602 53.682 35.6642 60.3129 35.6642C65.0339 35.6642 68.4287 37.2903 70.8685 41.5386L65.0866 45.2097C63.8134 42.9546 62.4347 42.0632 60.313 42.0632C58.1381 42.0632 56.7589 43.4268 56.7589 45.2097C56.7589 47.4125 58.1381 48.3044 61.3205 49.6681L63.1769 50.4547C69.4892 53.1297 73.0434 55.8567 73.0434 61.9928C73.0434 68.6016 67.792 72.2201 60.7372 72.2201C53.8414 72.2201 49.3856 68.9685 47.2111 64.7201" fill="black"/>
</svg>
