<svg width="80" height="80" viewBox="0 0 80 80" fill="none" xmlns="http://www.w3.org/2000/svg">
<rect width="79.2788" height="79.353" rx="17" fill="#007ACC"/>
<path fill-rule="evenodd" clip-rule="evenodd" d="M62.9311 24.2144C61.5259 22.7725 59.9601 21.8639 57.9126 21.3898L57.9528 21.3503C56.5677 20.9948 53.2555 20.8763 51.8503 21.1528C47.5143 21.9429 44.4832 24.7082 43.62 28.6587C43.339 29.7846 43.4394 32.5894 43.7405 33.7351C44.1419 35.0585 45.0051 36.6584 45.9486 37.6856C47.5946 39.3843 49.3611 40.4904 53.5164 42.2286C57.1297 43.8088 58.4145 44.5199 59.0568 45.389C59.5185 46.0803 59.659 46.4951 59.659 47.4037C59.659 48.3914 59.3378 49.1025 58.5951 49.774C56.8688 51.3147 53.3759 51.4925 50.7663 50.1691C49.9031 49.695 48.4177 48.3124 47.7552 47.2852L47.2333 46.5939L44.965 47.8976L41.9539 49.616L41.1911 50.0901C41.1108 50.2283 42.536 52.3418 43.2788 53.1319C45.1657 55.1664 48.237 56.7466 51.4488 57.3392C52.9544 57.596 56.1662 57.6355 57.5714 57.3985C62.0478 56.6676 65.1793 54.4356 66.4641 51.1369C67.6083 48.1148 67.2269 44.0853 65.5206 41.5175C64.0151 39.2262 61.5259 37.6263 55.7848 35.1968C52.6733 33.8536 51.6696 33.2018 51.1276 32.1154C50.8868 31.6018 50.7663 31.2463 50.7663 30.6142C50.7663 28.5402 52.3722 27.2958 54.7811 27.4538C56.4472 27.5723 57.5111 28.2044 58.555 29.6661C58.8761 30.1796 59.1973 30.5154 59.2776 30.4562C61.3854 29.1723 64.8582 26.8612 64.8582 26.7427C64.7779 26.3872 63.6738 25.0045 62.9311 24.2144ZM11 27.9081V24.6885L11.0602 24.7082V21.4688L25.1119 21.4096C32.8404 21.4096 39.2038 21.4293 39.2038 21.4886C39.2841 21.5281 39.2841 22.97 39.2841 24.7477V27.9081H28.8457V57.1417H21.4384V27.9081H11Z" fill="white"/>
</svg>
