<svg width="23" height="22" viewBox="0 0 23 22" fill="none" xmlns="http://www.w3.org/2000/svg">
<path fill-rule="evenodd" clip-rule="evenodd" d="M16 13L13.1 14.9C10.5872 13.4886 8.51139 11.4128 7.10001 8.9L9.00001 6L7.00001 1H3.00001L1.10001 2.9C2.01433 12.4368 9.56322 19.9857 19.1 20.9L21 19V15L16 13Z" stroke="#A9F8A7"/>
<path fill-rule="evenodd" clip-rule="evenodd" d="M18.5 2L18 1.5C17.2854 1.01546 16.3275 1.10651 15.717 1.71699C15.1065 2.32748 15.0155 3.28543 15.5 4L18.5 7L21.5 4C21.9845 3.28543 21.8935 2.32748 21.283 1.71699C20.6725 1.10651 19.7146 1.01546 19 1.5L18.5 2Z" fill="#F62851" stroke="#F62851"/>
</svg>
