<svg width="81" height="80" viewBox="0 0 81 80" fill="none" xmlns="http://www.w3.org/2000/svg">
<rect x="0.0388641" width="79.2788" height="79.353" rx="17" fill="#F1EBF5"/>
<path fill-rule="evenodd" clip-rule="evenodd" d="M25.5379 16.7807C25.5379 16.7807 24.6059 10.3159 39.5327 10.3159C55.1324 10.3159 53.9268 18.1105 53.9268 18.1105V30.9899C53.9268 38.7795 45.9893 38.6514 45.9893 38.6514H31.8614C23.3893 38.6514 23.6575 46.9776 23.6575 46.9776V53.9577H18.6821C18.6821 53.9577 10.3451 54.4911 10.3451 39.449C10.3451 24.4074 19.8968 25.4893 19.8968 25.4893H39.7989V23.4784H25.5545L25.5379 16.7807ZM33.491 15.5689C33.0103 15.0888 32.3582 14.8194 31.6784 14.82C30.9985 14.8194 30.3464 15.0888 29.8657 15.5689C29.385 16.049 29.1152 16.7003 29.1158 17.3792C29.1152 18.0582 29.385 18.7095 29.8657 19.1896C30.3464 19.6697 30.9985 19.9391 31.6784 19.9385C32.3582 19.9391 33.0103 19.6697 33.491 19.1896C33.9718 18.7095 34.2415 18.0582 34.2409 17.3792C34.2415 16.7003 33.9718 16.049 33.491 15.5689Z" fill="url(#paint0_linear)"/>
<path fill-rule="evenodd" clip-rule="evenodd" d="M53.8188 61.7787C53.8188 61.7787 54.7509 68.2436 39.824 68.2436H39.8238C24.2244 68.2436 25.4297 60.4492 25.4297 60.4492V47.5695C25.4297 39.7798 33.3672 39.9078 33.3672 39.9078H47.4951C55.9672 39.9078 55.699 31.5816 55.699 31.5816V24.6018H60.6744C60.6744 24.6018 69.0114 24.0683 69.0114 39.1102C69.0114 54.1523 59.4597 53.0704 59.4597 53.0704H39.5576V55.0812H53.8023L53.8188 61.7787ZM45.8657 62.991C46.3464 63.4711 46.9986 63.7405 47.6784 63.7399V63.7397C48.3582 63.7403 49.0103 63.4709 49.4911 62.9908C49.9718 62.5107 50.2415 61.8594 50.2409 61.1804C50.2415 60.5015 49.9718 59.8502 49.4911 59.3701C49.0103 58.89 48.3582 58.6206 47.6784 58.6212C46.9985 58.6206 46.3463 58.89 45.8656 59.3702C45.3849 59.8503 45.1151 60.5017 45.1158 61.1807C45.1152 61.8596 45.385 62.5109 45.8657 62.991Z" fill="url(#paint1_linear)"/>
<defs>
<linearGradient id="paint0_linear" x1="1.49913" y1="30.1861" x2="30.7306" y2="59.0346" gradientUnits="userSpaceOnUse">
<stop stop-color="#387EB8"/>
<stop offset="1" stop-color="#366994"/>
</linearGradient>
<linearGradient id="paint1_linear" x1="18.896" y1="49.2784" x2="50.2891" y2="78.8616" gradientUnits="userSpaceOnUse">
<stop stop-color="#FFE052"/>
<stop offset="1" stop-color="#FFC331"/>
</linearGradient>
</defs>
</svg>
